# xmcd
#
# Track frame offsets:
#	150
#	21658
#	41304
#	62918
#	78887
#	98009
#	114408
#	134041
#	150218
#	168421
#	184026
#	205419
#	224422
#	240319
#	261908
#	284294
#	303661
#
# Disc length: 4277 seconds
#
# Revision: 0
# Processed by: cddbd v1.5.1PL2 Copyright (c) Steve Scherf et al.
# Submitted via: dBpowerAMP V4.0
#
DISCID=ed10b311
DTITLE=La Barra - 11 años
DYEAR=2005
DGENRE=Country
TTITLE0=Asi no te amare jamas
TTITLE1=Se nos fue el amor
TTITLE2=Tempestad
TTITLE3=Salvaje
TTITLE4=La carta
TTITLE5=Amor Secreto
TTITLE6=Gotas de pena
TTITLE7=El mundo
TTITLE8=Gavilan o paloma
TTITLE9=El o yo
TTITLE10=Tengo ganas
TTITLE11=Tu me veras
TTITLE12=Amor infiel
TTITLE13=No se sabe
TTITLE14=Confidencias
TTITLE15=Tu amor me mata
TTITLE16=Otra noche
EXTD=La Barra 11 años
EXTT0=
EXTT1=
EXTT2=
EXTT3=
EXTT4=
EXTT5=
EXTT6=
EXTT7=
EXTT8=
EXTT9=
EXTT10=
EXTT11=
EXTT12=
EXTT13=
EXTT14=
EXTT15=
EXTT16=
PLAYORDER=
